<svg width="24" height="24" viewBox="0 0 24 24" fill="none" xmlns="http://www.w3.org/2000/svg">
<rect width="24" height="24" rx="4" fill="white"/>
<path d="M8.07806 9.77743C8.63653 9.73407 9.15977 9.88375 9.64776 10.2265C10.1358 10.5692 10.4583 11.0335 10.6153 11.6195C10.7433 12.0973 10.7376 12.5627 10.598 13.0156C10.4651 13.457 10.1989 13.852 9.79952 14.2006C9.39771 14.5402 8.87677 14.7957 8.23668 14.9672L4.96412 15.8441L2.43132 6.39154L5.60922 5.54002C6.56484 5.28397 7.34975 5.31038 7.96396 5.61927C8.58719 5.92575 8.99301 6.43058 9.18143 7.13377C9.33844 7.71977 9.30871 8.23985 9.09221 8.69403C8.8733 9.13919 8.53525 9.50032 8.07806 9.77743ZM4.49758 10.3165L6.70182 9.72587C7.34191 9.55436 7.79338 9.27395 8.05625 8.88465C8.32571 8.48392 8.38919 8.0176 8.24666 7.4857C8.10656 6.96281 7.82084 6.59972 7.38953 6.39643C6.96723 6.19072 6.42252 6.17724 5.75538 6.356L3.59171 6.93575L4.49758 10.3165ZM7.95528 14.1875C8.64044 14.0039 9.12886 13.6991 9.42054 13.2731C9.72124 12.8447 9.79549 12.3465 9.64331 11.7785C9.49112 11.2105 9.1675 10.8141 8.67243 10.5893C8.18396 10.353 7.60165 10.3254 6.9255 10.5066L4.70774 11.1008L5.69695 14.7926L7.95528 14.1875Z" fill="black"/>
<path d="M12.6846 4.4704L13.6303 7.99989L17.2139 7.03967L17.424 7.824L13.8404 8.78422L14.8007 12.3678L18.7899 11.2989L19.0001 12.0832L14.0642 13.4058L11.5278 3.93971L16.4637 2.61714L16.6738 3.40147L12.6846 4.4704Z" fill="black"/>
<rect x="4.96488" y="19.2085" width="3.28947" height="3.28947" rx="1.64474" transform="rotate(-15 4.96488 19.2085)" stroke="black" stroke-width="0.5"/>
<rect x="9.54007" y="17.9825" width="3.28947" height="3.28947" rx="1.64474" transform="rotate(-15 9.54007 17.9825)" fill="black" stroke="black" stroke-width="0.5"/>
<rect x="14.1158" y="16.7566" width="3.28947" height="3.28947" rx="1.64474" transform="rotate(-15 14.1158 16.7566)" stroke="black" stroke-width="0.5"/>
<rect x="18.691" y="15.5306" width="3.28947" height="3.28947" rx="1.64474" transform="rotate(-15 18.691 15.5306)" stroke="black" stroke-width="0.5"/>
</svg>
